<svg width="21" height="19" viewBox="0 0 21 19" fill="none" xmlns="http://www.w3.org/2000/svg">
<path d="M10.5 8.2828C9.5489 6.43307 6.95975 2.98644 4.55175 1.28719C2.24525 -0.34119 1.36587 -0.0594402 0.78925 0.20219C0.12162 0.50231 0 1.52781 0 2.12981C0 2.73356 0.33075 7.0736 0.546 7.7989C1.25913 10.1929 3.79487 11.0014 6.13112 10.7424C6.25012 10.7249 6.37175 10.7083 6.49425 10.6934C6.3735 10.7127 6.25275 10.7284 6.13112 10.7424C2.70813 11.2499 -0.3325 12.4968 3.65488 16.9357C8.04125 21.4769 9.6661 15.9618 10.5 13.1662C11.3339 15.9618 12.2937 21.2783 17.2664 16.9357C21 13.1662 18.2919 11.2499 14.8689 10.7424C14.7475 10.729 14.6264 10.7127 14.5057 10.6934C14.6282 10.7083 14.7499 10.7249 14.8689 10.7424C17.2051 11.0023 19.7409 10.1929 20.454 7.7989C20.6692 7.0744 21 2.73269 21 2.13069C21 1.52694 20.8784 0.50231 20.2107 0.20044C19.6341 -0.0603102 18.7548 -0.34206 16.4483 1.28544C14.0403 2.98732 11.4511 6.43394 10.5 8.2828Z" fill="#19171C"/>
</svg>
