<svg width="19" height="20" viewBox="0 0 19 20" fill="none" xmlns="http://www.w3.org/2000/svg">
<path fill-rule="evenodd" clip-rule="evenodd" d="M18.0271 4.09237C18.2942 4.80114 18.436 5.551 18.4461 6.30838C18.5018 7.26096 18.5021 7.57249 18.504 9.98372L18.5041 10.0173C18.5041 12.4603 18.4911 12.7653 18.4481 13.7273C18.4331 14.4763 18.2921 15.2143 18.0291 15.9143C17.7972 16.512 17.4432 17.0549 16.9899 17.5082C16.5366 17.9615 15.9938 18.3154 15.3961 18.5473C14.6964 18.8099 13.9572 18.9516 13.2101 18.9663C12.2551 19.0223 11.9421 19.0223 9.50012 19.0223C7.05809 19.0223 6.75309 19.0093 5.79009 18.9663C5.04146 18.9417 4.30252 18.7895 3.60509 18.5163C3.00715 18.2849 2.46407 17.9313 2.01053 17.4781C1.55699 17.0249 1.20297 16.4821 0.971094 15.8843C0.708094 15.1833 0.567094 14.4453 0.552094 13.6973C0.496094 12.7413 0.496094 12.4293 0.496094 9.98732C0.496094 7.54537 0.509094 7.24038 0.552094 6.27738C0.566214 5.53049 0.707924 4.7915 0.971094 4.09237C1.20258 3.49442 1.55634 2.95139 2.00972 2.498C2.46311 2.04461 3.00615 1.69085 3.60409 1.45937C4.30344 1.19683 5.04225 1.05482 5.78909 1.03937C6.74409 0.984375 7.05709 0.984375 9.49912 0.984375C11.9411 0.984375 12.2461 0.996375 13.2081 1.03937C13.9552 1.05471 14.6944 1.19672 15.3941 1.45937C15.9919 1.69102 16.5349 2.04483 16.9882 2.4982C17.4416 2.95156 17.7954 3.49452 18.0271 4.09237ZM4.87009 9.98232C4.87009 12.5363 6.93909 14.6053 9.49312 14.6053C10.7192 14.6053 11.895 14.1183 12.762 13.2513C13.629 12.3843 14.1161 11.2084 14.1161 9.98232C14.1161 8.75622 13.629 7.5804 12.762 6.71342C11.895 5.84644 10.7192 5.35938 9.49312 5.35938C6.93909 5.35938 4.87009 7.42837 4.87009 9.98232ZM13.2221 5.18837C13.2221 5.78438 13.7031 6.26637 14.3001 6.26637C14.8951 6.26637 15.3771 5.78438 15.3771 5.18837C15.3771 5.04688 15.3492 4.90675 15.2951 4.77602C15.2409 4.6453 15.1615 4.52652 15.0615 4.42647C14.9614 4.32641 14.8426 4.24703 14.7119 4.19289C14.5812 4.13874 14.4411 4.11088 14.2996 4.11088C14.1581 4.11088 14.018 4.13874 13.8872 4.19289C13.7565 4.24703 13.6377 4.32641 13.5377 4.42647C13.4376 4.52652 13.3582 4.6453 13.3041 4.77602C13.2499 4.90675 13.2221 5.04688 13.2221 5.18837ZM12.4961 9.98232C12.4961 11.6409 11.1516 12.9853 9.49312 12.9853C7.83462 12.9853 6.49009 11.6409 6.49009 9.98232C6.49009 8.32382 7.83462 6.97937 9.49312 6.97937C11.1516 6.97937 12.4961 8.32382 12.4961 9.98232Z" fill="#19171C"/>
</svg>
