<svg width="19" height="18" viewBox="0 0 19 18" fill="none" xmlns="http://www.w3.org/2000/svg">
<path d="M15.8353 15.339H13.1697V11.1623C13.1697 10.1663 13.1495 8.8845 11.7808 8.8845C10.391 8.8845 10.1787 9.9682 10.1787 11.0887V15.339H7.5132V6.75H10.0738V7.9207H10.1082C10.466 7.2457 11.336 6.53325 12.6357 6.53325C15.3365 6.53325 15.836 8.3108 15.836 10.6245L15.8353 15.339ZM4.50275 5.57475C3.64475 5.57475 2.9555 4.88025 2.9555 4.026C2.9555 3.1725 3.6455 2.47875 4.50275 2.47875C5.35775 2.47875 6.05075 3.1725 6.05075 4.026C6.05075 4.88025 5.357 5.57475 4.50275 5.57475ZM5.83925 15.339H3.16625V6.75H5.83925V15.339ZM17.1688 0H1.82825C1.094 0 0.5 0.5805 0.5 1.29675V16.7032C0.5 17.4202 1.094 18 1.82825 18H17.1665C17.9 18 18.5 17.4202 18.5 16.7032V1.29675C18.5 0.5805 17.9 0 17.1665 0H17.1688Z" fill="#19171C"/>
</svg>
