<svg width="21" height="15" viewBox="0 0 21 15" fill="none" xmlns="http://www.w3.org/2000/svg">
<path d="M20.0953 2.20301C19.9814 1.78041 19.7588 1.39501 19.4497 1.08518C19.1406 0.775337 18.7557 0.551867 18.3333 0.437007C16.7673 0.00700739 10.5023 7.59651e-06 10.5023 7.59651e-06C10.5023 7.59651e-06 4.23828 -0.00699261 2.67128 0.404007C2.2492 0.524147 1.8651 0.750778 1.55585 1.06214C1.24659 1.3735 1.02257 1.75913 0.905283 2.18201C0.492283 3.74801 0.488283 6.996 0.488283 6.996C0.488283 6.996 0.484283 10.26 0.894283 11.81C1.12428 12.667 1.79928 13.344 2.65728 13.575C4.23928 14.005 10.4873 14.012 10.4873 14.012C10.4873 14.012 16.7523 14.019 18.3183 13.609C18.7408 13.4943 19.1261 13.2714 19.436 12.9622C19.7459 12.653 19.9697 12.2682 20.0853 11.846C20.4993 10.281 20.5023 7.034 20.5023 7.034C20.5023 7.034 20.5223 3.76901 20.0953 2.20301ZM8.49828 10.005L8.50325 4.00501L13.7103 7.01L8.49828 10.005Z" fill="#19171C"/>
</svg>
